<svg xmlns="http://www.w3.org/2000/svg" width="900" height="600"><path fill="#001220" d="M0 0h900v600H0z"/><path fill="#232745" d="M413.3 600c55.5-43.1 111.1-86.2 126.4-149.2 15.3-63.1-9.6-146.1 16.1-195 25.7-48.9 102-63.6 167.8-81.7 65.8-18.1 121.1-39.5 176.4-60.8V600z"/><path fill="#96446e" d="M534.9 600c41.7-32.3 83.4-64.6 94.9-111.9 11.5-47.3-7.2-109.6 12.1-146.2 19.2-36.7 76.4-47.8 125.8-61.3C817 267 858.5 251 900 234.9V600z"/><path fill="#f17c53" d="M656.6 600c27.8-21.5 55.6-43.1 63.2-74.6 7.7-31.5-4.7-73 8.1-97.5 12.9-24.4 51-31.8 83.9-40.9 32.9-9 60.5-19.7 88.2-30.4V600z"/><path fill="#fbae3c" d="M778.3 600c13.9-10.8 27.8-21.5 31.6-37.3 3.9-15.8-2.4-36.5 4.1-48.7 6.4-12.3 25.4-16 41.9-20.5 16.4-4.5 30.3-9.8 44.1-15.2V600z"/><path fill="#232745" d="M486.7 0c-2.5 67.1-5.1 134.2-37 186.3-31.9 52-93.1 89-145.6 117.8-52.6 28.7-96.4 49.3-145.7 78.4C109.2 411.6 54.6 449.2 0 486.7V0z"/><path fill="#96446e" d="M365.1 0c-2 50.3-3.9 100.7-27.8 139.7-23.9 39-69.9 66.8-109.3 88.3-39.4 21.6-72.3 37.1-109.2 58.9C81.9 308.7 41 336.9 0 365.1V0z"/><path fill="#f17c53" d="M243.4 0c-1.3 33.6-2.6 67.1-18.6 93.1-15.9 26.1-46.5 44.5-72.8 58.9-26.2 14.4-48.2 24.7-72.8 39.2-24.6 14.6-51.9 33.4-79.2 52.2V0z"/><path fill="#fbae3c" d="M121.7 0c-.7 16.8-1.3 33.6-9.3 46.6-7.9 13-23.3 22.2-36.4 29.4-13.1 7.2-24.1 12.4-36.4 19.6-12.3 7.3-25.9 16.7-39.6 26.1V0z"/></svg>
